<svg xmlns="http://www.w3.org/2000/svg" width="1300" height="900" viewBox="0 0 1300 900">
  <defs>
    <marker id="arrow" markerWidth="10" markerHeight="10" refX="9" refY="3" orient="auto" markerUnits="strokeWidth">
      <path d="M0,0 L0,6 L9,3 z" fill="#334155" />
    </marker>
    <marker id="arrow-red" markerWidth="10" markerHeight="10" refX="9" refY="3" orient="auto" markerUnits="strokeWidth">
      <path d="M0,0 L0,6 L9,3 z" fill="#dc2626" />
    </marker>
    <style>
      .title { font: 700 28px Arial, sans-serif; fill: #0f172a; }
      .subtitle { font: 16px Arial, sans-serif; fill: #475569; }
      .box { fill: #dcfce7; stroke: #16a34a; stroke-width: 2; rx: 12; }
      .evidence { fill: #fef9c3; stroke: #ca8a04; stroke-width: 2; rx: 12; }
      .future { fill: #fee2e2; stroke: #dc2626; stroke-width: 2; rx: 12; }
      .label { font: 600 15px Arial, sans-serif; fill: #14532d; }
      .evidence-label { font: 600 15px Arial, sans-serif; fill: #713f12; }
      .future-label { font: 600 15px Arial, sans-serif; fill: #7f1d1d; }
      .small { font: 13px Arial, sans-serif; fill: #334155; }
      .line { stroke: #334155; stroke-width: 2.2; fill: none; marker-end: url(#arrow); }
      .future-line { stroke: #dc2626; stroke-width: 2.2; stroke-dasharray: 7 5; fill: none; marker-end: url(#arrow-red); }
      .group-title { font: 700 17px Arial, sans-serif; fill: #0f172a; }
      .group { fill: none; stroke: #cbd5e1; stroke-width: 2; stroke-dasharray: 8 6; rx: 16; }
    </style>
  </defs>

  <rect width="1300" height="900" fill="#ffffff" />
  <text x="40" y="48" class="title">AWS Deployment Runbook Summary</text>
  <text x="40" y="76" class="subtitle">A visual map of what was practiced and what remains for future practice.</text>

  <rect x="60" y="125" width="230" height="58" class="box" />
  <text x="175" y="149" text-anchor="middle" class="label">Local Setup</text>
  <text x="175" y="169" text-anchor="middle" class="small">Angular, npm, backend deps</text>

  <rect x="60" y="230" width="230" height="58" class="box" />
  <text x="175" y="254" text-anchor="middle" class="label">AWS CLI Auth</text>
  <text x="175" y="274" text-anchor="middle" class="small">aws configure + identity</text>

  <path d="M175 183 L175 230" class="line" />

  <rect x="350" y="110" width="290" height="340" class="group" />
  <text x="372" y="140" class="group-title">Serverless API</text>
  <rect x="395" y="170" width="200" height="48" class="box" />
  <text x="495" y="199" text-anchor="middle" class="label">npx serverless offline</text>
  <rect x="395" y="245" width="200" height="48" class="box" />
  <text x="495" y="274" text-anchor="middle" class="label">npx serverless deploy</text>
  <rect x="395" y="320" width="200" height="48" class="box" />
  <text x="495" y="349" text-anchor="middle" class="label">Lambda Functions</text>
  <rect x="395" y="395" width="200" height="48" class="box" />
  <text x="495" y="424" text-anchor="middle" class="label">API Gateway</text>

  <rect x="705" y="110" width="250" height="205" class="group" />
  <text x="727" y="140" class="group-title">Data Layer</text>
  <rect x="730" y="170" width="200" height="48" class="box" />
  <text x="830" y="199" text-anchor="middle" class="label">AWS SDK</text>
  <rect x="730" y="245" width="200" height="48" class="box" />
  <text x="830" y="274" text-anchor="middle" class="label">DynamoDB Users</text>

  <rect x="1010" y="110" width="250" height="205" class="group" />
  <text x="1032" y="140" class="group-title">Verification</text>
  <rect x="1035" y="170" width="200" height="48" class="evidence" />
  <text x="1135" y="199" text-anchor="middle" class="evidence-label">Console Checks</text>
  <rect x="1035" y="245" width="200" height="48" class="evidence" />
  <text x="1135" y="274" text-anchor="middle" class="evidence-label">Screenshots</text>

  <path d="M290 259 L395 194" class="line" />
  <path d="M495 218 L495 245" class="line" />
  <path d="M495 293 L495 320" class="line" />
  <path d="M495 368 L495 395" class="line" />
  <path d="M595 344 L730 194" class="line" />
  <path d="M830 218 L830 245" class="line" />
  <path d="M930 269 L1035 194" class="line" />
  <path d="M1135 218 L1135 245" class="line" />

  <rect x="60" y="520" width="340" height="235" class="group" />
  <text x="82" y="550" class="group-title">Static Frontend Hosting</text>
  <rect x="100" y="580" width="260" height="48" class="box" />
  <text x="230" y="609" text-anchor="middle" class="label">Angular Production Build</text>
  <rect x="100" y="650" width="260" height="48" class="box" />
  <text x="230" y="679" text-anchor="middle" class="label">GitHub Actions CI/CD</text>
  <rect x="100" y="720" width="260" height="48" class="box" />
  <text x="230" y="749" text-anchor="middle" class="label">S3 Static Bucket</text>

  <rect x="480" y="520" width="340" height="235" class="group" />
  <text x="502" y="550" class="group-title">Container Frontend Hosting</text>
  <rect x="520" y="580" width="260" height="48" class="box" />
  <text x="650" y="609" text-anchor="middle" class="label">Docker Image</text>
  <rect x="520" y="650" width="260" height="48" class="box" />
  <text x="650" y="679" text-anchor="middle" class="label">Amazon ECR</text>
  <rect x="520" y="720" width="260" height="48" class="box" />
  <text x="650" y="749" text-anchor="middle" class="label">AWS App Runner</text>

  <path d="M230 628 L230 650" class="line" />
  <path d="M230 698 L230 720" class="line" />
  <path d="M650 628 L650 650" class="line" />
  <path d="M650 698 L650 720" class="line" />
  <path d="M175 288 C175 405 230 450 230 580" class="line" />
  <path d="M290 259 C420 420 650 430 650 580" class="line" />

  <rect x="900" y="520" width="330" height="235" class="group" />
  <text x="922" y="550" class="group-title">Not Practiced Yet</text>
  <rect x="950" y="580" width="230" height="48" class="future" />
  <text x="1065" y="609" text-anchor="middle" class="future-label">Amazon ECS</text>
  <rect x="950" y="650" width="230" height="48" class="future" />
  <text x="1065" y="679" text-anchor="middle" class="future-label">Amazon EKS</text>
  <rect x="950" y="720" width="230" height="48" class="future" />
  <text x="1065" y="749" text-anchor="middle" class="future-label">Kubernetes</text>

  <path d="M780 604 L950 604" class="future-line" />
  <path d="M780 674 L950 674" class="future-line" />
  <path d="M1065 698 L1065 720" class="future-line" />

  <rect x="390" y="815" width="520" height="48" class="box" />
  <text x="650" y="844" text-anchor="middle" class="label">Final API: API Gateway /api/v1/register backed by Lambda and DynamoDB</text>
</svg>
